<mxfile host="app.diagrams.net" modified="2021-02-23T14:38:32.074Z" agent="5.0 (X11)" etag="CxNWnmYxIqMdNJ_-ptyZ" version="14.4.2" type="github">
  <diagram id="HpIUJ1Cj3pG0hHr_lTDw" name="Page-1">
    <mxGraphModel dx="2177" dy="804" grid="1" gridSize="10" guides="1" tooltips="1" connect="1" arrows="1" fold="1" page="1" pageScale="1" pageWidth="827" pageHeight="1169" math="0" shadow="0">
      <root>
        <mxCell id="0" />
        <mxCell id="1" parent="0" />
        <mxCell id="DkoMGTS4_m8foARR51V6-1" value="" style="rounded=0;whiteSpace=wrap;html=1;" vertex="1" parent="1">
          <mxGeometry x="320" y="10" width="410" height="60" as="geometry" />
        </mxCell>
        <mxCell id="DkoMGTS4_m8foARR51V6-2" value="Nav" style="text;html=1;strokeColor=none;fillColor=none;align=center;verticalAlign=middle;whiteSpace=wrap;rounded=0;" vertex="1" parent="1">
          <mxGeometry x="400" y="30" width="100" height="20" as="geometry" />
        </mxCell>
        <mxCell id="DkoMGTS4_m8foARR51V6-4" value="img" style="ellipse;whiteSpace=wrap;html=1;aspect=fixed;" vertex="1" parent="1">
          <mxGeometry x="100" width="80" height="80" as="geometry" />
        </mxCell>
        <mxCell id="DkoMGTS4_m8foARR51V6-5" value="" style="rounded=0;whiteSpace=wrap;html=1;" vertex="1" parent="1">
          <mxGeometry x="50" y="80" width="720" height="200" as="geometry" />
        </mxCell>
        <mxCell id="DkoMGTS4_m8foARR51V6-6" value="section 1&amp;nbsp; figure/ h1" style="text;html=1;strokeColor=none;fillColor=none;align=center;verticalAlign=middle;whiteSpace=wrap;rounded=0;" vertex="1" parent="1">
          <mxGeometry x="-140" y="150" width="170" height="20" as="geometry" />
        </mxCell>
        <mxCell id="DkoMGTS4_m8foARR51V6-7" value="" style="rounded=0;whiteSpace=wrap;html=1;" vertex="1" parent="1">
          <mxGeometry x="50" y="280" width="720" height="220" as="geometry" />
        </mxCell>
        <mxCell id="DkoMGTS4_m8foARR51V6-8" value="" style="rounded=0;whiteSpace=wrap;html=1;" vertex="1" parent="1">
          <mxGeometry x="50" y="500" width="720" height="260" as="geometry" />
        </mxCell>
        <mxCell id="DkoMGTS4_m8foARR51V6-9" value="section 3 galery =&amp;gt; imgx8" style="text;html=1;strokeColor=none;fillColor=none;align=center;verticalAlign=middle;whiteSpace=wrap;rounded=0;" vertex="1" parent="1">
          <mxGeometry x="-160" y="530" width="160" height="20" as="geometry" />
        </mxCell>
        <mxCell id="DkoMGTS4_m8foARR51V6-10" value="section 2 about us 3div" style="text;html=1;strokeColor=none;fillColor=none;align=center;verticalAlign=middle;whiteSpace=wrap;rounded=0;" vertex="1" parent="1">
          <mxGeometry x="-180" y="340" width="210" height="20" as="geometry" />
        </mxCell>
        <mxCell id="DkoMGTS4_m8foARR51V6-11" value="" style="rounded=0;whiteSpace=wrap;html=1;" vertex="1" parent="1">
          <mxGeometry x="50" y="760" width="720" height="430" as="geometry" />
        </mxCell>
        <mxCell id="DkoMGTS4_m8foARR51V6-12" value="section 4 testimonials x3 =&amp;gt; p/img" style="text;html=1;strokeColor=none;fillColor=none;align=center;verticalAlign=middle;whiteSpace=wrap;rounded=0;" vertex="1" parent="1">
          <mxGeometry x="-180" y="820" width="180" height="20" as="geometry" />
        </mxCell>
        <mxCell id="DkoMGTS4_m8foARR51V6-13" value="" style="rounded=0;whiteSpace=wrap;html=1;" vertex="1" parent="1">
          <mxGeometry x="50" y="1190" width="720" height="260" as="geometry" />
        </mxCell>
        <mxCell id="DkoMGTS4_m8foARR51V6-14" value="&lt;div&gt;section 5 buy our theme&lt;/div&gt;" style="text;html=1;strokeColor=none;fillColor=none;align=center;verticalAlign=middle;whiteSpace=wrap;rounded=0;" vertex="1" parent="1">
          <mxGeometry x="-150" y="1240" width="150" height="20" as="geometry" />
        </mxCell>
        <mxCell id="DkoMGTS4_m8foARR51V6-15" value="" style="rounded=0;whiteSpace=wrap;html=1;" vertex="1" parent="1">
          <mxGeometry x="50" y="1450" width="720" height="310" as="geometry" />
        </mxCell>
        <mxCell id="DkoMGTS4_m8foARR51V6-16" value="section 6 form contact" style="text;html=1;strokeColor=none;fillColor=none;align=center;verticalAlign=middle;whiteSpace=wrap;rounded=0;" vertex="1" parent="1">
          <mxGeometry x="-180" y="1480" width="160" height="20" as="geometry" />
        </mxCell>
        <mxCell id="DkoMGTS4_m8foARR51V6-17" value="" style="rounded=0;whiteSpace=wrap;html=1;" vertex="1" parent="1">
          <mxGeometry x="50" y="1760" width="720" height="220" as="geometry" />
        </mxCell>
        <mxCell id="DkoMGTS4_m8foARR51V6-18" value="section 7 newsletter" style="text;html=1;strokeColor=none;fillColor=none;align=center;verticalAlign=middle;whiteSpace=wrap;rounded=0;" vertex="1" parent="1">
          <mxGeometry x="-130" y="1790" width="130" height="20" as="geometry" />
        </mxCell>
        <mxCell id="DkoMGTS4_m8foARR51V6-88" value="" style="edgeStyle=orthogonalEdgeStyle;rounded=0;orthogonalLoop=1;jettySize=auto;html=1;" edge="1" parent="1" source="DkoMGTS4_m8foARR51V6-19" target="DkoMGTS4_m8foARR51V6-86">
          <mxGeometry relative="1" as="geometry" />
        </mxCell>
        <mxCell id="DkoMGTS4_m8foARR51V6-19" value="" style="rounded=0;whiteSpace=wrap;html=1;" vertex="1" parent="1">
          <mxGeometry x="50" y="1980" width="720" height="60" as="geometry" />
        </mxCell>
        <mxCell id="DkoMGTS4_m8foARR51V6-20" value="footer " style="text;html=1;strokeColor=none;fillColor=none;align=center;verticalAlign=middle;whiteSpace=wrap;rounded=0;" vertex="1" parent="1">
          <mxGeometry x="75" y="2000" width="150" height="20" as="geometry" />
        </mxCell>
        <mxCell id="DkoMGTS4_m8foARR51V6-21" value="header" style="text;html=1;strokeColor=none;fillColor=none;align=center;verticalAlign=middle;whiteSpace=wrap;rounded=0;" vertex="1" parent="1">
          <mxGeometry x="10" y="20" width="40" height="20" as="geometry" />
        </mxCell>
        <mxCell id="DkoMGTS4_m8foARR51V6-23" value="" style="endArrow=classic;startArrow=classic;html=1;exitX=0;exitY=0;exitDx=0;exitDy=0;" edge="1" parent="1" source="DkoMGTS4_m8foARR51V6-5">
          <mxGeometry width="50" height="50" relative="1" as="geometry">
            <mxPoint x="390" y="240" as="sourcePoint" />
            <mxPoint x="50" y="10" as="targetPoint" />
          </mxGeometry>
        </mxCell>
        <mxCell id="DkoMGTS4_m8foARR51V6-24" value="" style="endArrow=classic;startArrow=classic;html=1;" edge="1" parent="1">
          <mxGeometry width="50" height="50" relative="1" as="geometry">
            <mxPoint x="40" y="2010" as="sourcePoint" />
            <mxPoint x="40" y="80" as="targetPoint" />
          </mxGeometry>
        </mxCell>
        <mxCell id="DkoMGTS4_m8foARR51V6-27" value="main" style="text;html=1;strokeColor=none;fillColor=none;align=center;verticalAlign=middle;whiteSpace=wrap;rounded=0;" vertex="1" parent="1">
          <mxGeometry x="-20" y="100" width="40" height="30" as="geometry" />
        </mxCell>
        <mxCell id="DkoMGTS4_m8foARR51V6-28" value="i&lt;br&gt;burger" style="whiteSpace=wrap;html=1;aspect=fixed;" vertex="1" parent="1">
          <mxGeometry x="680" y="25" width="30" height="30" as="geometry" />
        </mxCell>
        <mxCell id="DkoMGTS4_m8foARR51V6-29" value="&lt;div&gt;flex-wrap&lt;/div&gt;" style="text;html=1;strokeColor=none;fillColor=none;align=center;verticalAlign=middle;whiteSpace=wrap;rounded=0;" vertex="1" parent="1">
          <mxGeometry x="-145" y="575" width="140" height="20" as="geometry" />
        </mxCell>
        <mxCell id="DkoMGTS4_m8foARR51V6-30" value="flex =&amp;gt; row" style="text;html=1;strokeColor=none;fillColor=none;align=center;verticalAlign=middle;whiteSpace=wrap;rounded=0;" vertex="1" parent="1">
          <mxGeometry x="-140" y="380" width="100" height="20" as="geometry" />
        </mxCell>
        <mxCell id="DkoMGTS4_m8foARR51V6-32" value="flex =&amp;gt;row" style="text;html=1;strokeColor=none;fillColor=none;align=center;verticalAlign=middle;whiteSpace=wrap;rounded=0;" vertex="1" parent="1">
          <mxGeometry x="-170" y="1840" width="170" height="20" as="geometry" />
        </mxCell>
        <mxCell id="DkoMGTS4_m8foARR51V6-33" value="flex =&amp;gt;row" style="text;html=1;strokeColor=none;fillColor=none;align=center;verticalAlign=middle;whiteSpace=wrap;rounded=0;" vertex="1" parent="1">
          <mxGeometry x="480" y="2000" width="170" height="20" as="geometry" />
        </mxCell>
        <mxCell id="DkoMGTS4_m8foARR51V6-38" value="" style="rounded=0;whiteSpace=wrap;html=1;" vertex="1" parent="1">
          <mxGeometry x="300" y="280" width="230" height="220" as="geometry" />
        </mxCell>
        <mxCell id="DkoMGTS4_m8foARR51V6-40" value="" style="rounded=0;whiteSpace=wrap;html=1;" vertex="1" parent="1">
          <mxGeometry x="110" y="280" width="190" height="220" as="geometry" />
        </mxCell>
        <mxCell id="DkoMGTS4_m8foARR51V6-41" value="" style="rounded=0;whiteSpace=wrap;html=1;" vertex="1" parent="1">
          <mxGeometry x="530" y="280" width="180" height="220" as="geometry" />
        </mxCell>
        <mxCell id="DkoMGTS4_m8foARR51V6-42" value="" style="rounded=0;whiteSpace=wrap;html=1;" vertex="1" parent="1">
          <mxGeometry x="310" y="290" width="210" height="180" as="geometry" />
        </mxCell>
        <mxCell id="DkoMGTS4_m8foARR51V6-44" value="" style="endArrow=none;html=1;entryX=1;entryY=0.25;entryDx=0;entryDy=0;exitX=0;exitY=0.25;exitDx=0;exitDy=0;" edge="1" parent="1" source="DkoMGTS4_m8foARR51V6-42" target="DkoMGTS4_m8foARR51V6-42">
          <mxGeometry width="50" height="50" relative="1" as="geometry">
            <mxPoint x="390" y="440" as="sourcePoint" />
            <mxPoint x="440" y="390" as="targetPoint" />
          </mxGeometry>
        </mxCell>
        <mxCell id="DkoMGTS4_m8foARR51V6-45" value="" style="endArrow=none;html=1;entryX=1;entryY=0.5;entryDx=0;entryDy=0;exitX=0;exitY=0.5;exitDx=0;exitDy=0;" edge="1" parent="1" source="DkoMGTS4_m8foARR51V6-42" target="DkoMGTS4_m8foARR51V6-42">
          <mxGeometry width="50" height="50" relative="1" as="geometry">
            <mxPoint x="390" y="440" as="sourcePoint" />
            <mxPoint x="440" y="390" as="targetPoint" />
          </mxGeometry>
        </mxCell>
        <mxCell id="DkoMGTS4_m8foARR51V6-46" value="" style="endArrow=none;html=1;exitX=0;exitY=0.75;exitDx=0;exitDy=0;entryX=1;entryY=0.75;entryDx=0;entryDy=0;" edge="1" parent="1" source="DkoMGTS4_m8foARR51V6-42" target="DkoMGTS4_m8foARR51V6-42">
          <mxGeometry width="50" height="50" relative="1" as="geometry">
            <mxPoint x="390" y="440" as="sourcePoint" />
            <mxPoint x="440" y="390" as="targetPoint" />
          </mxGeometry>
        </mxCell>
        <mxCell id="DkoMGTS4_m8foARR51V6-47" value="" style="rhombus;whiteSpace=wrap;html=1;" vertex="1" parent="1">
          <mxGeometry x="310" y="340" width="40" height="40" as="geometry" />
        </mxCell>
        <mxCell id="DkoMGTS4_m8foARR51V6-48" value="" style="rhombus;whiteSpace=wrap;html=1;" vertex="1" parent="1">
          <mxGeometry x="310" y="380" width="40" height="40" as="geometry" />
        </mxCell>
        <mxCell id="DkoMGTS4_m8foARR51V6-49" value="" style="rhombus;whiteSpace=wrap;html=1;" vertex="1" parent="1">
          <mxGeometry x="310" y="430" width="40" height="40" as="geometry" />
        </mxCell>
        <mxCell id="DkoMGTS4_m8foARR51V6-54" value="" style="rounded=0;whiteSpace=wrap;html=1;" vertex="1" parent="1">
          <mxGeometry x="50" y="500" width="180" height="130" as="geometry" />
        </mxCell>
        <mxCell id="DkoMGTS4_m8foARR51V6-55" value="" style="rounded=0;whiteSpace=wrap;html=1;" vertex="1" parent="1">
          <mxGeometry x="230" y="500" width="180" height="130" as="geometry" />
        </mxCell>
        <mxCell id="DkoMGTS4_m8foARR51V6-56" value="" style="rounded=0;whiteSpace=wrap;html=1;" vertex="1" parent="1">
          <mxGeometry x="410" y="500" width="180" height="130" as="geometry" />
        </mxCell>
        <mxCell id="DkoMGTS4_m8foARR51V6-57" value="" style="rounded=0;whiteSpace=wrap;html=1;" vertex="1" parent="1">
          <mxGeometry x="590" y="500" width="180" height="130" as="geometry" />
        </mxCell>
        <mxCell id="DkoMGTS4_m8foARR51V6-58" value="" style="rounded=0;whiteSpace=wrap;html=1;" vertex="1" parent="1">
          <mxGeometry x="590" y="630" width="180" height="130" as="geometry" />
        </mxCell>
        <mxCell id="DkoMGTS4_m8foARR51V6-59" value="" style="rounded=0;whiteSpace=wrap;html=1;" vertex="1" parent="1">
          <mxGeometry x="410" y="630" width="180" height="130" as="geometry" />
        </mxCell>
        <mxCell id="DkoMGTS4_m8foARR51V6-60" value="" style="rounded=0;whiteSpace=wrap;html=1;" vertex="1" parent="1">
          <mxGeometry x="230" y="630" width="180" height="130" as="geometry" />
        </mxCell>
        <mxCell id="DkoMGTS4_m8foARR51V6-61" value="" style="rounded=0;whiteSpace=wrap;html=1;" vertex="1" parent="1">
          <mxGeometry x="50" y="630" width="180" height="130" as="geometry" />
        </mxCell>
        <mxCell id="DkoMGTS4_m8foARR51V6-62" value="" style="ellipse;whiteSpace=wrap;html=1;aspect=fixed;" vertex="1" parent="1">
          <mxGeometry x="110" y="790" width="80" height="80" as="geometry" />
        </mxCell>
        <mxCell id="DkoMGTS4_m8foARR51V6-63" value="" style="rounded=0;whiteSpace=wrap;html=1;" vertex="1" parent="1">
          <mxGeometry x="220" y="780" width="490" height="95" as="geometry" />
        </mxCell>
        <mxCell id="DkoMGTS4_m8foARR51V6-64" value="" style="rounded=0;whiteSpace=wrap;html=1;" vertex="1" parent="1">
          <mxGeometry x="110" y="920" width="490" height="95" as="geometry" />
        </mxCell>
        <mxCell id="DkoMGTS4_m8foARR51V6-65" value="" style="ellipse;whiteSpace=wrap;html=1;aspect=fixed;" vertex="1" parent="1">
          <mxGeometry x="630" y="927.5" width="80" height="80" as="geometry" />
        </mxCell>
        <mxCell id="DkoMGTS4_m8foARR51V6-66" value="" style="rounded=0;whiteSpace=wrap;html=1;" vertex="1" parent="1">
          <mxGeometry x="230" y="1060" width="490" height="95" as="geometry" />
        </mxCell>
        <mxCell id="DkoMGTS4_m8foARR51V6-67" value="" style="ellipse;whiteSpace=wrap;html=1;aspect=fixed;" vertex="1" parent="1">
          <mxGeometry x="105" y="1067.5" width="80" height="80" as="geometry" />
        </mxCell>
        <mxCell id="DkoMGTS4_m8foARR51V6-68" value="" style="rounded=0;whiteSpace=wrap;html=1;" vertex="1" parent="1">
          <mxGeometry x="240" y="1210" width="330" height="40" as="geometry" />
        </mxCell>
        <mxCell id="DkoMGTS4_m8foARR51V6-69" value="&lt;br&gt;&lt;p&gt;Lorem ipsum dolor sit amet, consectetur adipisicing elit, sed do eiusmod tempor incididunt ut labore et dolore magna aliqua.&lt;/p&gt;" style="text;html=1;strokeColor=none;fillColor=none;spacing=5;spacingTop=-20;whiteSpace=wrap;overflow=hidden;rounded=0;" vertex="1" parent="1">
          <mxGeometry x="190" y="1270" width="430" height="100" as="geometry" />
        </mxCell>
        <mxCell id="DkoMGTS4_m8foARR51V6-71" value="" style="rounded=0;whiteSpace=wrap;html=1;" vertex="1" parent="1">
          <mxGeometry x="345" y="1400" width="120" height="30" as="geometry" />
        </mxCell>
        <mxCell id="DkoMGTS4_m8foARR51V6-72" value="" style="rounded=0;whiteSpace=wrap;html=1;" vertex="1" parent="1">
          <mxGeometry x="345" y="1470" width="120" height="30" as="geometry" />
        </mxCell>
        <mxCell id="DkoMGTS4_m8foARR51V6-73" value="" style="rounded=0;whiteSpace=wrap;html=1;" vertex="1" parent="1">
          <mxGeometry x="120" y="1530" width="225" height="30" as="geometry" />
        </mxCell>
        <mxCell id="DkoMGTS4_m8foARR51V6-74" value="" style="rounded=0;whiteSpace=wrap;html=1;" vertex="1" parent="1">
          <mxGeometry x="120" y="1590" width="225" height="30" as="geometry" />
        </mxCell>
        <mxCell id="DkoMGTS4_m8foARR51V6-75" value="" style="rounded=0;whiteSpace=wrap;html=1;" vertex="1" parent="1">
          <mxGeometry x="125" y="1650" width="225" height="30" as="geometry" />
        </mxCell>
        <mxCell id="DkoMGTS4_m8foARR51V6-76" value="" style="rounded=0;whiteSpace=wrap;html=1;" vertex="1" parent="1">
          <mxGeometry x="430" y="1530" width="225" height="30" as="geometry" />
        </mxCell>
        <mxCell id="DkoMGTS4_m8foARR51V6-77" value="" style="rounded=0;whiteSpace=wrap;html=1;" vertex="1" parent="1">
          <mxGeometry x="432.5" y="1590" width="225" height="90" as="geometry" />
        </mxCell>
        <mxCell id="DkoMGTS4_m8foARR51V6-78" style="edgeStyle=orthogonalEdgeStyle;rounded=0;orthogonalLoop=1;jettySize=auto;html=1;exitX=0.5;exitY=1;exitDx=0;exitDy=0;" edge="1" parent="1" source="DkoMGTS4_m8foARR51V6-32" target="DkoMGTS4_m8foARR51V6-32">
          <mxGeometry relative="1" as="geometry" />
        </mxCell>
        <mxCell id="DkoMGTS4_m8foARR51V6-79" value="" style="ellipse;whiteSpace=wrap;html=1;" vertex="1" parent="1">
          <mxGeometry x="350" y="1710" width="95" height="30" as="geometry" />
        </mxCell>
        <mxCell id="DkoMGTS4_m8foARR51V6-80" value="" style="rounded=0;whiteSpace=wrap;html=1;" vertex="1" parent="1">
          <mxGeometry x="110" y="1760" width="200" height="220" as="geometry" />
        </mxCell>
        <mxCell id="DkoMGTS4_m8foARR51V6-83" value="" style="rounded=0;whiteSpace=wrap;html=1;" vertex="1" parent="1">
          <mxGeometry x="310" y="1760" width="185" height="220" as="geometry" />
        </mxCell>
        <mxCell id="DkoMGTS4_m8foARR51V6-84" value="" style="rounded=0;whiteSpace=wrap;html=1;" vertex="1" parent="1">
          <mxGeometry x="495" y="1760" width="215" height="220" as="geometry" />
        </mxCell>
        <mxCell id="DkoMGTS4_m8foARR51V6-85" value="" style="rounded=0;whiteSpace=wrap;html=1;" vertex="1" parent="1">
          <mxGeometry x="320" y="1930" width="90" height="20" as="geometry" />
        </mxCell>
        <mxCell id="DkoMGTS4_m8foARR51V6-86" value="" style="rounded=0;whiteSpace=wrap;html=1;" vertex="1" parent="1">
          <mxGeometry x="320" y="1865" width="120" height="40" as="geometry" />
        </mxCell>
        <mxCell id="DkoMGTS4_m8foARR51V6-87" style="edgeStyle=orthogonalEdgeStyle;rounded=0;orthogonalLoop=1;jettySize=auto;html=1;exitX=0.5;exitY=1;exitDx=0;exitDy=0;" edge="1" parent="1" source="DkoMGTS4_m8foARR51V6-83" target="DkoMGTS4_m8foARR51V6-83">
          <mxGeometry relative="1" as="geometry" />
        </mxCell>
      </root>
    </mxGraphModel>
  </diagram>
</mxfile>
